# xmcd CD database file
#
# Track frame offsets:
#	150
#	23332
#	42622
#	56675
#	73512
#	95379
#	116094
#	137919
#	150213
#	166054
#	181307
#	194628
#	220728
#	235893
#	252424
#	278399
#	292765
#	307568
#	328920
#	342344
#
# Disc length: 4787 seconds
#
# Revision: 0
# Processed by: cddbd v1.5.2PL0 Copyright (c) Steve Scherf et al.
# Submitted via: CDex 2.02
#
DISCID=1412b114
DTITLE=Vaarious - Canadian Blues for Gordy Vol 1
DYEAR=1900
DGENRE=Blues
TTITLE0=Don't Lose Your Cool-David Gogo
TTITLE1=Sould Fever-David Gogo
TTITLE2=Flip Flop and Fly-Downchild Blues Band
TTITLE3=Next to Me-The Twisters
TTITLE4=Rollin' and Tumblin'-Lester Quitzau
TTITLE5=Two Trains-Sue Foley
TTITLE6=Home of the Mardi Gras-Gary Comeua
TTITLE7=Smokestack-Terminal Station
TTITLE8=Burnin' Up-Carson Downey Band
TTITLE9=Young Enough-George Leach
TTITLE10=Jumpin' From Six to Six-Colin James
TTITLE11=You Done Tore Your Play House Down-King Biscuit Boy
TTITLE12=Doin' It Right-Powder Blues
TTITLE13=Don't You Get Your Fingers Dirty-John Campbelljohn
TTITLE14=King of the Blues-Jack De Keyzer
TTITLE15=How Do I Know-Nigel Mack
TTITLE16=Confidence Man-The Jeff Healey Band
TTITLE17=Howl at the Moon-Ellen McIlmaine
TTITLE18=Harpin' On A Riff-Carlos del Junco Band
TTITLE19=Southern Jumbo-Colin Linden
EXTD=
EXTT0=
EXTT1=
EXTT2=
EXTT3=
EXTT4=
EXTT5=
EXTT6=
EXTT7=
EXTT8=
EXTT9=
EXTT10=
EXTT11=
EXTT12=
EXTT13=
EXTT14=
EXTT15=
EXTT16=
EXTT17=
EXTT18=
EXTT19=
PLAYORDER=
